# Blender 4.4.3
# www.blender.org
o Cube
v 0.000000 -1.397246 0.778921 0.0000 0.0716 0.5221
v -0.000000 -0.015346 -1.505359 0.0000 0.0716 0.5221
v -0.000000 -1.397246 -1.599136 0.0000 0.0716 0.5221
v 0.635374 0.222272 1.210208 0.1671 0.8418 1.0000
v 1.818417 -1.128862 1.148807 0.0000 0.2865 0.7816
v 0.910191 0.079493 -0.744591 0.1671 0.8418 1.0000
v 0.464590 -1.067261 -1.683894 0.0000 0.0716 0.5221
v 0.000000 -0.985551 5.352913 0.0000 0.2865 0.7816
v 0.000000 -1.231404 5.310089 0.0000 0.2865 0.7816
v 0.170926 -1.122417 5.263186 0.0000 0.2865 0.7816
v 3.214154 -0.849053 -0.214812 0.0000 0.2865 0.7816
v 3.203604 -1.000000 -0.234222 0.0000 0.2865 0.7816
v 3.763003 -0.849053 -1.358604 0.0000 0.2865 0.7816
v 3.752452 -1.000000 -1.378013 0.0000 0.2865 0.7816
v 1.548095 -0.271698 -1.000000 0.0000 0.1005 0.6614
v 1.421319 -1.000000 1.942692 0.0000 0.2865 0.7816
v 1.552825 -0.693101 1.995352 0.0000 0.2865 0.7816
v 1.139177 -0.759434 2.617523 0.0000 0.2865 0.7816
v 1.097115 -1.000000 2.613906 0.0000 0.2834 0.7776
v 0.744810 -0.767459 -1.606597 0.0000 0.0000 0.0000
v 3.757917 -0.921809 -1.475290 0.0000 0.2865 0.7816
v 0.478581 -0.371111 -1.629167 0.0000 0.0000 0.0000
v -0.000000 0.079493 -1.229402 0.1671 0.8418 1.0000
v 1.884801 -0.645938 1.319675 0.0000 0.2865 0.7816
v 0.000000 0.368735 1.627152 0.1671 0.8418 1.0000
v 0.612036 0.606293 0.018511 0.1671 0.8418 1.0000
v 0.774339 0.363177 -0.607383 0.1671 0.8418 1.0000
v -0.000000 0.551757 -0.960648 0.1671 0.8418 1.0000
v 0.000000 0.794873 0.018990 0.1671 0.8418 1.0000
v 0.307819 0.551757 -0.795354 0.1671 0.8418 1.0000
v 0.328838 0.794873 0.018694 0.1671 0.8418 1.0000
v 0.431319 0.079493 -1.046741 0.0000 0.0716 0.5221
v 0.508324 0.231555 1.565545 0.1671 0.8418 1.0000
v 0.000000 0.573977 1.131229 0.1671 0.8418 1.0000
v 0.512818 0.393900 1.144704 0.1671 0.8418 1.0000
v 0.911886 0.222272 -0.323949 0.1671 0.8418 1.0000
v 0.311927 0.794873 -0.314070 0.1671 0.8418 1.0000
v -0.000000 0.794873 -0.429453 0.1671 0.8418 1.0000
v 0.595997 0.606293 -0.340305 0.1671 0.8418 1.0000
v 0.725903 -0.006188 1.610910 0.1671 0.8418 1.0000
v 0.079695 -1.173462 5.310089 0.0000 0.2865 0.7816
v 1.305870 -1.291788 0.621125 0.0000 0.0716 0.5221
v 0.084436 -1.060487 5.352913 0.0000 0.2865 0.7816
v 0.928599 0.026896 0.749457 0.0000 0.0716 0.5221
v 0.893955 0.028588 1.116575 0.1671 0.8418 1.0000
v 0.000000 0.082543 2.041326 0.1671 0.8418 1.0000
v 0.433444 0.025861 1.913036 0.1671 0.8418 1.0000
v 1.000000 -0.766353 -1.560398 0.0000 0.0716 0.5221
v 1.000000 -0.139499 -1.042990 0.0000 0.0716 0.5221
v -0.000000 -1.241239 -1.709676 0.0000 0.0000 0.0000
v 1.000000 -1.222783 -1.339319 0.0000 0.0716 0.5221
v -0.000000 -0.126234 -1.662787 0.0000 0.0000 0.0000
v 0.391976 -0.972153 -2.085671 0.0000 0.0000 0.0000
v 0.571973 -0.746530 -2.090283 0.0000 0.0000 0.0000
v 0.393990 -0.486074 -2.092718 0.0000 0.0000 0.0000
v -0.000000 -1.272897 -2.111022 0.0000 0.0000 0.0000
v -0.000000 -0.167476 -2.064133 0.0000 0.0000 0.0000
v 0.686324 -0.758726 -2.061815 0.0000 0.0000 0.0000
v 0.478581 -0.400443 -2.059983 0.0000 0.0000 0.0000
v 0.464590 -1.055969 -2.071265 0.0000 0.0000 0.0000
v -0.000000 -0.279035 -2.087577 0.0000 0.0000 0.0000
v -0.000000 -1.132912 -2.099299 0.0000 0.0000 0.0000
v 0.323202 -1.089414 -1.793700 0.6858 0.9015 1.0000
v 0.560766 -0.887651 -1.807053 0.6858 0.9015 1.0000
v 0.393990 -0.623797 -1.743238 0.6858 0.9015 1.0000
v -0.000000 -0.404848 -1.791321 0.6858 0.9015 1.0000
v -0.000000 -1.113266 -1.803043 0.6858 0.9015 1.0000
v 0.911886 0.222272 -0.323949 0.1671 0.8418 1.0000
v 1.032633 0.053504 -0.337822 0.1671 0.8418 1.0000
v 2.009558 -0.896834 -1.171404 0.0000 0.0999 0.6584
v 1.986778 -1.151716 -1.056757 0.0000 0.0716 0.5221
v 2.854115 -0.528821 -1.045840 0.0000 0.2865 0.7816
v 1.110585 -0.285326 1.188679 0.0000 0.1816 0.6305
v 1.172073 -0.292516 0.957062 0.0000 0.1836 0.6329
v 0.469134 -0.522629 3.300694 0.0000 0.2035 0.6588
v 0.895371 -0.422168 2.067325 0.0000 0.2017 0.6565
v 1.508592 -0.373737 -0.177407 0.0000 0.1944 0.6468
v 0.431319 0.079493 -1.046741 0.1671 0.8418 1.0000
v 0.910191 0.079493 -0.744591 0.1671 0.8418 1.0000
v 0.910191 0.079493 -0.744591 0.0000 0.0716 0.5221
v -0.000000 0.079493 -1.229402 0.0000 0.0716 0.5221
v 0.893955 0.028588 1.116575 0.0000 0.0716 0.5221
v 0.928599 0.026896 0.749457 0.1671 0.8418 1.0000
v 0.725903 -0.006188 1.610910 0.0000 0.0716 0.5221
v 0.000000 0.082543 2.041326 0.0000 0.0716 0.5221
v 0.433444 0.025861 1.913036 0.0000 0.0716 0.5221
v 1.032633 0.053504 -0.337822 0.0000 0.0716 0.5221
v 0.744810 -0.767459 -1.606597 0.0000 0.0716 0.5221
v 0.478581 -0.371111 -1.629167 0.0000 0.0716 0.5221
v -0.000000 -1.241239 -1.709676 0.0000 0.0716 0.5221
v 0.464590 -1.067261 -1.683894 0.0000 0.0000 0.0000
v -0.000000 -0.126234 -1.662787 0.0000 0.0716 0.5221
v -0.635374 0.222272 1.210208 0.1671 0.8418 1.0000
v -1.818417 -1.128862 1.148807 0.0000 0.2865 0.7816
v -0.910191 0.079493 -0.744591 0.1671 0.8418 1.0000
v -0.464591 -1.067261 -1.683894 0.0000 0.0716 0.5221
v -0.170925 -1.122417 5.263186 0.0000 0.2865 0.7816
v -3.214154 -0.849053 -0.214812 0.0000 0.2865 0.7816
v -3.203604 -1.000000 -0.234221 0.0000 0.2865 0.7816
v -3.763003 -0.849053 -1.358603 0.0000 0.2865 0.7816
v -3.752453 -1.000000 -1.378013 0.0000 0.2865 0.7816
v -1.548095 -0.271698 -1.000000 0.0000 0.1005 0.6614
v -1.421318 -1.000000 1.942693 0.0000 0.2865 0.7816
v -1.552825 -0.693101 1.995352 0.0000 0.2865 0.7816
v -1.139176 -0.759434 2.617523 0.0000 0.2865 0.7816
v -1.097114 -1.000000 2.613906 0.0000 0.2834 0.7776
v -0.744810 -0.767459 -1.606596 0.0000 0.0000 0.0000
v -3.757918 -0.921809 -1.475289 0.0000 0.2865 0.7816
v -0.478582 -0.371111 -1.629167 0.0000 0.0000 0.0000
v -1.884801 -0.645938 1.319675 0.0000 0.2865 0.7816
v -0.612036 0.606293 0.018511 0.1671 0.8418 1.0000
v -0.774339 0.363177 -0.607383 0.1671 0.8418 1.0000
v -0.307820 0.551757 -0.795354 0.1671 0.8418 1.0000
v -0.328838 0.794873 0.018694 0.1671 0.8418 1.0000
v -0.431320 0.079493 -1.046741 0.0000 0.0716 0.5221
v -0.508324 0.231555 1.565545 0.1671 0.8418 1.0000
v -0.512818 0.393900 1.144704 0.1671 0.8418 1.0000
v -0.911886 0.222272 -0.323949 0.1671 0.8418 1.0000
v -0.311927 0.794873 -0.314070 0.1671 0.8418 1.0000
v -0.595997 0.606293 -0.340305 0.1671 0.8418 1.0000
v -0.725903 -0.006188 1.610911 0.1671 0.8418 1.0000
v -0.079694 -1.173462 5.310089 0.0000 0.2865 0.7816
v -1.305870 -1.291788 0.621125 0.0000 0.0716 0.5221
v -0.084436 -1.060487 5.352913 0.0000 0.2865 0.7816
v -0.928599 0.026896 0.749457 0.0000 0.0716 0.5221
v -0.893955 0.028588 1.116576 0.1671 0.8418 1.0000
v -0.433444 0.025861 1.913036 0.1671 0.8418 1.0000
v -1.000000 -0.766353 -1.560397 0.0000 0.0716 0.5221
v -1.000000 -0.139499 -1.042989 0.0000 0.0716 0.5221
v -1.000000 -1.222783 -1.339319 0.0000 0.0716 0.5221
v -0.391977 -0.972153 -2.085671 0.0000 0.0000 0.0000
v -0.571973 -0.746530 -2.090283 0.0000 0.0000 0.0000
v -0.393991 -0.486074 -2.092718 0.0000 0.0000 0.0000
v -0.686324 -0.758726 -2.061815 0.0000 0.0000 0.0000
v -0.478582 -0.400443 -2.059983 0.0000 0.0000 0.0000
v -0.464591 -1.055969 -2.071265 0.0000 0.0000 0.0000
v -0.323203 -1.089414 -1.793700 0.6858 0.9015 1.0000
v -0.560766 -0.887651 -1.807053 0.6858 0.9015 1.0000
v -0.393991 -0.623797 -1.743238 0.6858 0.9015 1.0000
v -0.911886 0.222272 -0.323949 0.1671 0.8418 1.0000
v -1.032633 0.053504 -0.337822 0.1671 0.8418 1.0000
v -2.009558 -0.896834 -1.171404 0.0000 0.0999 0.6584
v -1.986778 -1.151716 -1.056757 0.0000 0.0716 0.5221
v -2.854115 -0.528821 -1.045839 0.0000 0.2865 0.7816
v -1.110585 -0.285326 1.188679 0.0000 0.1816 0.6305
v -1.172073 -0.292516 0.957062 0.0000 0.1836 0.6329
v -0.469134 -0.522629 3.300694 0.0000 0.2035 0.6588
v -0.895370 -0.422168 2.067325 0.0000 0.2017 0.6565
v -1.508592 -0.373737 -0.177407 0.0000 0.1944 0.6468
v -0.431320 0.079493 -1.046741 0.1671 0.8418 1.0000
v -0.910191 0.079493 -0.744591 0.1671 0.8418 1.0000
v -0.910191 0.079493 -0.744591 0.0000 0.0716 0.5221
v -0.893955 0.028588 1.116576 0.0000 0.0716 0.5221
v -0.928599 0.026896 0.749457 0.1671 0.8418 1.0000
v -0.725903 -0.006188 1.610911 0.0000 0.0716 0.5221
v -0.433444 0.025861 1.913036 0.0000 0.0716 0.5221
v -1.032633 0.053504 -0.337822 0.0000 0.0716 0.5221
v -0.744810 -0.767459 -1.606596 0.0000 0.0716 0.5221
v -0.478582 -0.371111 -1.629167 0.0000 0.0716 0.5221
v -0.464591 -1.067261 -1.683894 0.0000 0.0000 0.0000
vn 0.4444 0.5535 -0.7044
vn 0.2780 -0.4146 -0.8665
vn 0.1876 -0.9802 -0.0638
vn 0.5668 -0.3127 0.7622
vn 0.8396 -0.2801 0.4654
vn 0.5878 -0.8085 0.0296
vn 0.2985 0.9076 0.2952
vn 0.9976 -0.0697 -0.0000
vn 0.0330 -0.9904 0.1339
vn 0.3822 0.9057 0.1834
vn 0.6937 -0.3231 0.6437
vn 0.8886 -0.1618 0.4292
vn 0.3631 0.9114 0.1939
vn 0.9330 -0.1679 0.3184
vn 0.7401 0.6034 0.2969
vn 0.1141 0.8408 -0.5292
vn 0.3519 -0.9356 -0.0273
vn 0.3198 0.8223 -0.4708
vn 0.8134 0.5744 0.0919
vn 0.2181 0.8874 -0.4061
vn 0.8401 0.5209 0.1514
vn 0.2999 0.8815 0.3648
vn 0.4070 0.5099 -0.7579
vn 0.7654 0.6167 0.1837
vn 0.4768 0.7848 -0.3960
vn 0.0002 0.9808 0.1948
vn 0.5541 0.8321 -0.0248
vn 0.7721 0.6326 -0.0602
vn -0.0000 1.0000 -0.0000
vn 0.3556 -0.9187 0.1718
vn 0.2559 -0.3520 0.9003
vn 0.4088 0.8603 0.3045
vn 0.7710 0.6331 0.0698
vn 0.6365 0.7595 0.1344
vn 0.2659 0.7931 0.5480
vn 0.5881 0.6341 0.5021
vn 0.6111 0.7897 0.0540
vn 0.5865 0.7453 0.3169
vn 0.8953 -0.1178 0.4296
vn 0.1775 0.0633 -0.9821
vn 0.2973 -0.6078 -0.7363
vn 0.3677 0.7055 -0.6059
vn 0.4789 -0.2291 -0.8475
vn 0.7400 -0.6639 -0.1078
vn 0.8645 0.5014 -0.0341
vn -0.3735 0.8879 0.2686
vn 0.4587 0.8839 -0.0908
vn 0.2540 0.1522 -0.9552
vn 0.1188 0.2500 -0.9609
vn 0.0902 -0.0923 -0.9916
vn 0.0770 -0.1037 -0.9916
vn -0.0816 0.1853 -0.9793
vn -0.7497 0.6037 0.2711
vn -0.4391 -0.8269 -0.3512
vn -0.8049 -0.5521 -0.2176
vn 0.7825 0.5904 -0.1978
vn 0.1609 0.3697 -0.9151
vn -0.1312 -0.3969 -0.9084
vn 0.1946 0.9725 0.1279
vn 0.4096 0.9087 0.0805
vn 0.7219 0.6235 0.3003
vn 0.4190 0.9060 0.0594
vn 0.7447 0.6073 0.2770
vn 0.2228 0.9661 0.1305
vn -0.4444 0.5535 -0.7044
vn -0.2789 -0.4186 -0.8643
vn -0.0748 -0.9961 -0.0467
vn -0.5668 -0.3127 0.7622
vn -0.8396 -0.2801 0.4654
vn -0.0861 -0.9951 0.0476
vn -0.3922 0.8895 0.2346
vn -0.9976 -0.0697 -0.0000
vn -0.0330 -0.9904 0.1339
vn -0.3822 0.9057 0.1834
vn -0.6937 -0.3231 0.6437
vn -0.7776 -0.4144 0.4728
vn -0.3631 0.9114 0.1939
vn -0.9330 -0.1679 0.3184
vn -0.7401 0.6034 0.2969
vn 0.1318 0.5774 -0.8058
vn -0.3519 -0.9356 -0.0273
vn -0.2750 0.8570 -0.4359
vn -0.8102 0.5677 0.1460
vn -0.2181 0.8874 -0.4061
vn -0.8401 0.5209 0.1514
vn -0.2833 0.8937 0.3478
vn -0.4070 0.5099 -0.7579
vn -0.9204 0.3614 0.1492
vn -0.4814 0.7807 -0.3985
vn -0.3123 0.9099 0.2730
vn -0.5511 0.8340 -0.0280
vn -0.7721 0.6326 -0.0602
vn -0.1473 -0.9763 0.1584
vn -0.2559 -0.3520 0.9003
vn -0.4088 0.8603 0.3045
vn -0.7710 0.6331 0.0698
vn -0.6506 0.7551 0.0807
vn -0.2801 0.7984 0.5330
vn -0.6954 0.6805 0.2309
vn -0.6111 0.7897 0.0540
vn -0.5408 0.8024 0.2523
vn -0.8953 -0.1178 0.4296
vn -0.1775 0.0633 -0.9821
vn -0.2973 -0.6078 -0.7363
vn -0.3677 0.7055 -0.6059
vn -0.4789 -0.2291 -0.8475
vn -0.7400 -0.6639 -0.1078
vn -0.8288 0.5513 -0.0959
vn 0.3735 0.8879 0.2686
vn -0.4587 0.8839 -0.0908
vn -0.2257 0.1453 -0.9633
vn -0.1188 0.2500 -0.9609
vn -0.0902 -0.0923 -0.9916
vn -0.0770 -0.1037 -0.9916
vn 0.0138 0.0165 -0.9998
vn 0.7497 0.6037 0.2711
vn 0.4391 -0.8269 -0.3512
vn 0.8049 -0.5521 -0.2176
vn -0.7825 0.5904 -0.1978
vn -0.3680 0.4886 -0.7911
vn 0.1312 -0.3969 -0.9084
vn -0.1959 0.9720 0.1300
vn -0.4096 0.9087 0.0805
vn -0.7219 0.6235 0.3003
vn -0.4190 0.9060 0.0594
vn -0.7447 0.6073 0.2770
vn -0.2228 0.9661 0.1305
vn 0.4904 0.5060 -0.7096
vn 0.2789 -0.4186 -0.8643
vn 0.3870 -0.9174 -0.0927
vn 0.0805 -0.9968 -0.0000
vn 0.8263 -0.4187 0.3767
vn 0.0861 -0.9951 0.0476
vn 0.3746 0.8938 0.2465
vn 0.5350 0.8050 0.2564
vn 0.0979 -0.9952 0.0054
vn 0.0936 -0.9946 0.0449
vn 0.7062 -0.1386 0.6943
vn 0.7776 -0.4144 0.4728
vn -0.1318 0.5774 -0.8058
vn 0.4170 -0.9061 0.0715
vn 0.1364 0.9369 -0.3220
vn 0.3144 0.8080 -0.4983
vn 0.7889 0.5809 -0.2004
vn 0.6758 0.7270 0.1218
vn 0.1649 0.8798 -0.4458
vn 0.7725 0.6340 -0.0345
vn 0.2833 0.8937 0.3478
vn 0.3454 0.4642 -0.8156
vn 0.5430 0.8152 0.2016
vn 0.7409 0.6239 0.2486
vn 0.4814 0.7807 -0.3985
vn 0.3123 0.9099 0.2730
vn 0.5511 0.8340 -0.0280
vn 0.8542 0.4914 -0.1702
vn 0.5443 -0.8229 0.1631
vn 0.0969 -0.9736 0.2065
vn 0.6086 -0.7735 0.1770
vn -0.1506 -0.1696 0.9739
vn 0.6314 0.7114 0.3087
vn 0.2105 0.9304 0.3001
vn 0.7869 0.5868 0.1907
vn 0.6917 0.6878 -0.2203
vn 0.7635 0.6397 0.0887
vn 0.2801 0.7984 0.5330
vn 0.6954 0.6805 0.2309
vn 0.6378 0.7222 0.2676
vn 0.5408 0.8024 0.2523
vn 0.5045 0.5496 -0.6659
vn 0.2532 -0.5593 -0.7893
vn 0.4170 0.7431 -0.5234
vn 0.1626 -0.4301 -0.8880
vn 0.8017 -0.5975 -0.0174
vn 0.8288 0.5513 -0.0959
vn -0.0715 0.9953 -0.0660
vn 0.4373 0.8972 -0.0611
vn 0.2257 0.1453 -0.9633
vn 0.1080 0.2045 -0.9729
vn 0.2254 -0.1375 -0.9645
vn 0.0463 0.0834 -0.9954
vn 0.0368 -0.1090 -0.9934
vn 0.1301 0.0164 -0.9914
vn -0.6345 0.7573 0.1547
vn -0.4270 -0.8413 -0.3315
vn -0.8425 -0.4681 -0.2666
vn 0.0212 0.2789 -0.9601
vn 0.3548 0.5952 -0.7211
vn -0.1198 -0.7705 -0.6261
vn 0.1959 0.9720 0.1300
vn 0.7526 0.5876 0.2972
vn -0.4904 0.5060 -0.7096
vn -0.2780 -0.4146 -0.8665
vn -0.3870 -0.9174 -0.0927
vn -0.1719 -0.9851 -0.0000
vn -0.8263 -0.4187 0.3767
vn -0.5878 -0.8085 0.0296
vn -0.3746 0.8938 0.2465
vn -0.3894 0.8521 0.3497
vn -0.0979 -0.9952 0.0054
vn -0.0936 -0.9946 0.0449
vn -0.7062 -0.1386 0.6943
vn -0.8886 -0.1618 0.4292
vn -0.1141 0.8408 -0.5292
vn -0.4170 -0.9061 0.0715
vn -0.1364 0.9369 -0.3220
vn -0.3279 0.8060 -0.4928
vn -0.7889 0.5809 -0.2004
vn -0.6364 0.7672 0.0797
vn -0.1649 0.8798 -0.4458
vn -0.7725 0.6340 -0.0345
vn -0.2999 0.8815 0.3648
vn -0.3454 0.4642 -0.8156
vn -0.5430 0.8152 0.2016
vn -0.6622 0.7169 0.2180
vn -0.4768 0.7848 -0.3960
vn -0.0002 0.9808 0.1948
vn -0.5541 0.8321 -0.0248
vn -0.8542 0.4914 -0.1702
vn -0.5443 -0.8229 0.1631
vn -0.8964 0.0949 0.4330
vn -0.6086 -0.7735 0.1770
vn 0.1506 -0.1696 0.9739
vn -0.6314 0.7114 0.3087
vn -0.2105 0.9304 0.3001
vn -0.7869 0.5868 0.1907
vn -0.6917 0.6878 -0.2203
vn -0.7281 0.6645 0.1684
vn -0.2659 0.7931 0.5480
vn -0.5881 0.6341 0.5021
vn -0.6378 0.7222 0.2676
vn -0.5865 0.7453 0.3169
vn -0.5045 0.5496 -0.6659
vn -0.2532 -0.5593 -0.7893
vn -0.4170 0.7431 -0.5234
vn -0.1626 -0.4301 -0.8880
vn -0.8017 -0.5975 -0.0174
vn -0.8645 0.5014 -0.0341
vn 0.0715 0.9953 -0.0660
vn -0.4373 0.8972 -0.0611
vn -0.2540 0.1522 -0.9552
vn -0.1080 0.2045 -0.9729
vn -0.2254 -0.1375 -0.9645
vn -0.0463 0.0834 -0.9954
vn -0.0368 -0.1090 -0.9934
vn -0.3343 0.4159 -0.8457
vn 0.6345 0.7573 0.1547
vn 0.4270 -0.8413 -0.3315
vn 0.8425 -0.4681 -0.2666
vn -0.0212 0.2789 -0.9601
vn -0.2093 0.6225 -0.7541
vn 0.1198 -0.7705 -0.6261
vn -0.1946 0.9725 0.1279
vn -0.7526 0.5876 0.2972
s 0
f 78//1 27//1 79//1
f 51//2 70//2 71//2
f 42//3 3//3 51//3
f 10//4 43//4 41//4
f 24//5 16//5 5//5
f 1//6 41//6 9//6
f 73//7 18//7 17//7
f 21//8 13//8 14//8
f 51//9 71//9 12//9
f 13//10 72//10 11//10
f 5//11 11//11 24//11
f 16//12 18//12 19//12
f 11//13 72//13 24//13
f 19//14 18//14 10//14
f 43//15 75//15 84//15
f 21//16 72//16 13//16
f 50//17 60//17 91//17
f 32//18 49//18 2//18
f 68//19 83//19 69//19
f 38//20 30//20 28//20
f 36//21 26//21 4//21
f 25//22 35//22 34//22
f 78//23 28//23 30//23
f 35//24 4//24 26//24
f 30//25 39//25 27//25
f 34//26 31//26 29//26
f 39//27 31//27 26//27
f 36//28 27//28 39//28
f 37//29 29//29 31//29
f 42//30 16//30 19//30
f 43//31 9//31 41//31
f 84//32 86//32 8//32
f 82//33 74//33 44//33
f 87//34 74//34 77//34
f 47//35 25//35 46//35
f 40//36 33//36 47//36
f 4//37 45//37 83//37
f 18//38 75//38 10//38
f 12//39 13//39 11//39
f 89//40 48//40 88//40
f 3//41 7//41 51//41
f 89//42 2//42 49//42
f 88//43 51//43 7//43
f 91//44 58//44 20//44
f 22//45 58//45 59//45
f 62//46 63//46 53//46
f 22//47 57//47 52//47
f 54//48 59//48 58//48
f 61//49 59//49 55//49
f 54//50 60//50 53//50
f 60//51 62//51 53//51
f 67//52 65//52 64//52
f 53//53 64//53 54//53
f 55//54 66//54 61//54
f 54//55 65//55 55//55
f 87//56 49//56 80//56
f 70//57 49//57 15//57
f 70//58 14//58 71//58
f 72//59 77//59 24//59
f 74//60 73//60 24//60
f 75//61 76//61 84//61
f 77//62 74//62 24//62
f 73//63 84//63 76//63
f 77//64 15//64 49//64
f 112//65 150//65 151//65
f 130//66 142//66 128//66
f 130//67 1//67 123//67
f 97//68 122//68 124//68
f 103//69 110//69 94//69
f 1//70 122//70 123//70
f 104//71 148//71 145//71
f 108//72 101//72 100//72
f 99//73 143//73 130//73
f 100//74 98//74 144//74
f 98//75 94//75 110//75
f 103//76 105//76 104//76
f 98//77 110//77 144//77
f 106//78 97//78 105//78
f 147//79 124//79 155//79
f 108//80 144//80 142//80
f 136//81 50//81 160//81
f 2//82 152//82 115//82
f 141//83 93//83 140//83
f 113//84 38//84 28//84
f 111//85 118//85 93//85
f 25//86 117//86 116//86
f 28//87 150//87 113//87
f 111//88 116//88 117//88
f 113//89 120//89 119//89
f 34//90 114//90 117//90
f 120//91 114//91 119//91
f 112//92 118//92 120//92
f 119//29 29//29 38//29
f 106//93 94//93 123//93
f 9//94 124//94 122//94
f 8//95 156//95 155//95
f 146//96 153//96 125//96
f 149//97 125//97 157//97
f 127//98 25//98 116//98
f 121//99 116//99 93//99
f 126//100 93//100 154//100
f 105//101 147//101 148//101
f 99//102 100//102 101//102
f 128//103 159//103 158//103
f 96//104 3//104 130//104
f 2//105 159//105 129//105
f 130//106 158//106 96//106
f 134//107 160//107 107//107
f 109//108 134//108 107//108
f 137//109 62//109 131//109
f 57//110 109//110 52//110
f 132//111 135//111 133//111
f 135//112 61//112 133//112
f 136//113 132//113 131//113
f 62//114 136//114 131//114
f 138//115 66//115 67//115
f 138//116 131//116 132//116
f 66//117 133//117 61//117
f 139//118 132//118 133//118
f 157//119 152//119 129//119
f 102//120 128//120 142//120
f 101//121 142//121 143//121
f 144//122 149//122 102//122
f 146//123 110//123 145//123
f 147//124 155//124 148//124
f 149//125 110//125 146//125
f 155//126 145//126 148//126
f 149//127 129//127 102//127
f 78//128 30//128 27//128
f 51//129 48//129 70//129
f 51//130 5//130 42//130
f 42//131 1//131 3//131
f 24//132 17//132 16//132
f 1//133 42//133 41//133
f 17//134 24//134 73//134
f 73//135 76//135 18//135
f 12//136 5//136 51//136
f 71//137 14//137 12//137
f 5//138 12//138 11//138
f 16//139 17//139 18//139
f 43//15 10//15 75//15
f 21//140 70//140 72//140
f 50//141 56//141 60//141
f 2//142 81//142 32//142
f 32//143 80//143 49//143
f 69//144 6//144 68//144
f 68//145 4//145 83//145
f 38//146 37//146 30//146
f 36//147 39//147 26//147
f 25//148 33//148 35//148
f 78//149 23//149 28//149
f 26//150 31//150 35//150
f 35//151 33//151 4//151
f 30//152 37//152 39//152
f 34//153 35//153 31//153
f 39//154 37//154 31//154
f 36//155 79//155 27//155
f 37//29 38//29 29//29
f 10//156 41//156 42//156
f 42//157 5//157 16//157
f 19//158 10//158 42//158
f 43//159 8//159 9//159
f 8//160 43//160 84//160
f 86//161 85//161 8//161
f 82//162 73//162 74//162
f 77//163 49//163 87//163
f 87//164 44//164 74//164
f 47//165 33//165 25//165
f 40//166 4//166 33//166
f 4//167 40//167 45//167
f 18//168 76//168 75//168
f 12//39 14//39 13//39
f 89//169 49//169 48//169
f 3//170 90//170 7//170
f 89//171 92//171 2//171
f 88//172 48//172 51//172
f 91//173 60//173 58//173
f 22//174 20//174 58//174
f 62//175 67//175 63//175
f 22//176 59//176 57//176
f 54//177 55//177 59//177
f 61//178 57//178 59//178
f 54//179 58//179 60//179
f 60//180 56//180 62//180
f 64//181 63//181 67//181
f 67//182 66//182 65//182
f 53//183 63//183 64//183
f 55//184 65//184 66//184
f 54//185 64//185 65//185
f 15//186 72//186 70//186
f 70//187 48//187 49//187
f 70//188 21//188 14//188
f 72//189 15//189 77//189
f 73//190 82//190 84//190
f 112//191 113//191 150//191
f 130//192 143//192 142//192
f 123//193 94//193 130//193
f 130//194 3//194 1//194
f 103//195 104//195 110//195
f 1//196 9//196 122//196
f 145//197 110//197 104//197
f 104//198 105//198 148//198
f 130//199 94//199 99//199
f 99//200 101//200 143//200
f 98//201 99//201 94//201
f 103//202 106//202 105//202
f 147//79 97//79 124//79
f 108//203 100//203 144//203
f 136//204 56//204 50//204
f 115//205 81//205 2//205
f 2//206 129//206 152//206
f 140//207 95//207 141//207
f 141//208 154//208 93//208
f 113//209 119//209 38//209
f 111//210 120//210 118//210
f 25//211 34//211 117//211
f 28//212 23//212 150//212
f 117//213 114//213 111//213
f 111//214 93//214 116//214
f 113//215 112//215 120//215
f 34//216 29//216 114//216
f 120//217 111//217 114//217
f 112//218 151//218 118//218
f 119//29 114//29 29//29
f 123//219 122//219 97//219
f 106//220 103//220 94//220
f 123//221 97//221 106//221
f 9//222 8//222 124//222
f 155//223 124//223 8//223
f 8//224 85//224 156//224
f 146//225 145//225 153//225
f 157//226 129//226 149//226
f 149//227 146//227 125//227
f 127//228 46//228 25//228
f 121//229 127//229 116//229
f 126//230 121//230 93//230
f 105//231 97//231 147//231
f 99//102 98//102 100//102
f 128//232 129//232 159//232
f 96//233 90//233 3//233
f 2//234 92//234 159//234
f 130//235 128//235 158//235
f 134//236 136//236 160//236
f 109//237 135//237 134//237
f 137//238 67//238 62//238
f 57//239 135//239 109//239
f 132//240 134//240 135//240
f 135//241 57//241 61//241
f 136//242 134//242 132//242
f 62//243 56//243 136//243
f 67//244 137//244 138//244
f 138//245 139//245 66//245
f 138//246 137//246 131//246
f 66//247 139//247 133//247
f 139//248 138//248 132//248
f 142//249 144//249 102//249
f 102//250 129//250 128//250
f 101//251 108//251 142//251
f 144//252 110//252 149//252
f 155//253 153//253 145//253
